# xmcd
#
# Track frame offsets:
#	150
#	13725
#	32287
#	40687
#	56137
#	70050
#	89250
#	103050
#	121575
#	130500
#	145350
#	156975
#	174487
#	193950
#	207900
#	219337
#	239737
#	257062
#	271350
#	283200
#	299737
#	319875
#	331387
#
# Disc length: 4589 seconds
# Revision: 13
# Processed by: cddbd v1.5.2PL0 Copyright (c) Steve Scherf et al.
# Submitted via: dBpowerAMP V12.0
#
DISCID=6511eb17
DTITLE=Various Artist - Hand Picked: 25 Years Of Bluegrass On Rounder Records, Disc 2 of 2
DYEAR=1995
DGENRE=Bluegrass
TTITLE0=James King - Leavin'
TTITLE1=Here Today - Lonesome River
TTITLE2=Jim and Jesse - Hard Hearted
TTITLE3=The Johnson Mountain Boys - My Better Years
TTITLE4=Claire Lynch - Second Wind
TTITLE5=IIIrd Time Out - New Faces In The Field
TTITLE6=Tony Trischka - New York Chimes
TTITLE7=Laurie Lewis and Kathy Kallick - Is the Blue Moon Still Shining?
TTITLE8=David Grier and Mike Compton - Flop Eared Mule
TTITLE9=Alison Krauss - Every Time You Say Goodbye
TTITLE10=Tony Rice - Cold On The Shoulder
TTITLE11=The Dreadful Snakes - Who's That Knocking At My Door?
TTITLE12=J. D. Crowe - Mr. Engineer
TTITLE13=Lynn Morris - You'll Get No More Of Me
TTITLE14=The Nashville Bluegrass Band - Every Humble Knee Must Bow
TTITLE15=Hazel Dickens - Mama's Hand
TTITLE16=Laurie Lewis and Tom Rozum - Sleepy Eyed John/Tom and Jerry
TTITLE17=Béla Fleck - Whitewater
TTITLE18=The Warrior River Boys - You're That Certain Someone
TTITLE19=Del McCoury - I Feel The Blues Moving In
TTITLE20=The Cox Family - When God Dips His Pen Of Love In My Heart
TTITLE21=Ricky Skaggs - River Of Jordan
TTITLE22=Dry Branch Fire Squad - We Believe In Happy Endings
EXTD=
EXTT0=
EXTT1=
EXTT2=
EXTT3=
EXTT4=
EXTT5=
EXTT6=
EXTT7=
EXTT8=
EXTT9=
EXTT10=
EXTT11=
EXTT12=
EXTT13=
EXTT14=
EXTT15=
EXTT16=
EXTT17=
EXTT18=
EXTT19=
EXTT20=
EXTT21=
EXTT22=
PLAYORDER=
